<?xml version="1.0" encoding="UTF-8"?>
<svg width="66px" height="34px" viewBox="0 0 66 34" version="1.1" xmlns="http://www.w3.org/2000/svg" xmlns:xlink="http://www.w3.org/1999/xlink">
    <!-- Generator: Sketch 40.2 (33826) - http://www.bohemiancoding.com/sketch -->
    <title>Page 1</title>
    <desc>Created with Sketch.</desc>
    <defs></defs>
    <g id="Page-1" stroke="none" stroke-width="1" fill="none" fill-rule="evenodd" opacity="0.5">
        <g id="Homepage_Menu" transform="translate(-1039.000000, -388.000000)" fill="#FFFFFF">
            <g id="Page-1" transform="translate(1039.000000, 388.000000)">
                <path d="M18.9052102,1.28906249e-05 L18.9052102,4.37315742 L-5.15624997e-05,4.37315742 L-5.15624997e-05,6.39144258 L18.9052102,6.39144258 L18.9052102,15.8103645 L3.22943672,15.8103645 L3.22943672,17.8286496 L18.9052102,17.8286496 L18.9052102,21.5289035 L6.18951094,21.5289035 L6.18951094,23.5471887 L18.9050813,23.5471887 L18.9050813,33.6388723 L65.9999484,33.6388723 L65.9999484,1.28906249e-05 L18.9052102,1.28906249e-05 Z M23.1441633,2.01829805 L63.9815344,2.01829805 L63.9815344,31.6208449 L63.9816633,31.6208449 L20.9234953,31.6208449 L20.9234953,2.93572383 L42.452257,17.8451496 L58.3256438,6.8663332 L57.1774758,5.20614961 L42.4529016,15.3906457 L23.1441633,2.01829805 Z" id="Fill-1"></path>
                <polygon id="Fill-2" points="4.37314453 29.2661016 16.9541367 29.2661016 16.9541367 27.2476875 4.37314453 27.2476875"></polygon>
                <polygon id="Fill-3" points="4.37314453 12.1100977 16.9541367 12.1100977 16.9541367 10.0916836 4.37314453 10.0916836"></polygon>
            </g>
        </g>
    </g>
</svg>