<?xml version="1.0" encoding="UTF-8"?>
<svg width="45px" height="39px" viewBox="0 0 45 39" version="1.1" xmlns="http://www.w3.org/2000/svg" xmlns:xlink="http://www.w3.org/1999/xlink">
    <!-- Generator: Sketch 40.2 (33826) - http://www.bohemiancoding.com/sketch -->
    <title>Page 1</title>
    <desc>Created with Sketch.</desc>
    <defs>
        <polygon id="path-1" points="1.7578125e-05 38.4960938 45 38.4960938 45 0.0133769531 1.7578125e-05 0.0133769531"></polygon>
    </defs>
    <g id="Page-1" stroke="none" stroke-width="1" fill="none" fill-rule="evenodd" opacity="0.5">
        <g id="Homepage_Menu" transform="translate(-571.000000, -388.000000)">
            <g id="Page-1" transform="translate(571.000000, 388.000000)">
                <g id="Group-3" transform="translate(0.000000, 0.074531)">
                    <mask id="mask-2" fill="white">
                        <use xlink:href="#path-1"></use>
                    </mask>
                    <g id="Clip-2"></g>
                    <path d="M6.25545703,1.85011523 C3.81332813,1.85011523 1.82656055,3.84795703 1.82656055,6.30362109 L1.82656055,24.2574785 C1.82656055,26.7130547 3.81332813,28.7109844 6.25545703,28.7109844 L26.7958477,28.7109844 C27.0112676,28.7109844 27.2197441,28.7875371 27.384627,28.9271953 L35.2583965,35.6023125 L35.2583965,29.6293535 C35.2583965,29.1221367 35.6673516,28.7109844 36.1717559,28.7109844 L38.7445781,28.7109844 C41.1866191,28.7109844 43.1734746,26.7130547 43.1734746,24.2574785 L43.1734746,6.30362109 C43.1734746,3.84795703 41.1866191,1.85011523 38.7445781,1.85011523 L6.25545703,1.85011523 Z M36.1719316,38.4961113 C35.960291,38.4961113 35.7510234,38.4222832 35.5830645,38.2799004 L26.4623027,30.5478105 L6.25545703,30.5478105 C2.80618945,30.5477227 1.7578125e-05,27.7259062 1.7578125e-05,24.2574785 L1.7578125e-05,6.30362109 C1.7578125e-05,2.83519336 2.80618945,0.0133769531 6.25545703,0.0133769531 L38.7445781,0.0133769531 C42.1938457,0.0133769531 45.0000176,2.83528125 45.0000176,6.30362109 L45.0000176,24.2574785 C45.0000176,27.7259062 42.1938457,30.5477227 38.7445781,30.5477227 L37.0849395,30.5477227 L37.0849395,37.5777422 C37.0849395,37.9351055 36.8789238,38.2598613 36.5567168,38.410418 C36.4337578,38.4678984 36.3024492,38.4961113 36.1719316,38.4961113 L36.1719316,38.4961113 Z" id="Fill-1" fill="#FFFFFF" mask="url(#mask-2)"></path>
                </g>
                <path d="M37.2093047,10.3723418 L7.79073047,10.3723418 C7.28632617,10.3723418 6.87745898,9.96110156 6.87745898,9.45397266 C6.87745898,8.94675586 7.28632617,8.53560352 7.79073047,8.53560352 L37.2092168,8.53560352 C37.7136211,8.53560352 38.1224004,8.94675586 38.1224004,9.45397266 C38.1224004,9.96110156 37.713709,10.3723418 37.2093047,10.3723418" id="Fill-4" fill="#FFFFFF"></path>
                <path d="M37.2093047,16.2530156 L7.79073047,16.2530156 C7.28632617,16.2530156 6.87745898,15.8417754 6.87745898,15.3346465 C6.87745898,14.8274297 7.28632617,14.4162773 7.79073047,14.4162773 L37.2092168,14.4162773 C37.7136211,14.4162773 38.1224004,14.8274297 38.1224004,15.3346465 C38.1224004,15.8417754 37.713709,16.2530156 37.2093047,16.2530156" id="Fill-6" fill="#FFFFFF"></path>
                <path d="M37.2093047,22.1337773 L7.79073047,22.1337773 C7.28632617,22.1337773 6.87745898,21.7225371 6.87745898,21.2154082 C6.87745898,20.7081914 7.28632617,20.2970391 7.79073047,20.2970391 L37.2092168,20.2970391 C37.7136211,20.2970391 38.1224004,20.7081035 38.1224004,21.2154082 C38.1224004,21.7225371 37.713709,22.1337773 37.2093047,22.1337773" id="Fill-8" fill="#FFFFFF"></path>
            </g>
        </g>
    </g>
</svg>