<?xml version="1.0" encoding="UTF-8"?>
<svg width="45px" height="39px" viewBox="0 0 45 39" version="1.1" xmlns="http://www.w3.org/2000/svg" xmlns:xlink="http://www.w3.org/1999/xlink">
    <!-- Generator: Sketch 40.2 (33826) - http://www.bohemiancoding.com/sketch -->
    <title>Page 1</title>
    <desc>Created with Sketch.</desc>
    <defs></defs>
    <g id="Page-1" stroke="none" stroke-width="1" fill="none" fill-rule="evenodd">
        <g id="Homepage_Menu" transform="translate(-326.000000, -388.000000)" fill="#FFFFFF">
            <path d="M369.499886,418.749969 L367.999859,418.749969 L367.999859,392.499991 C367.999859,391.672766 367.327146,390.999965 366.499833,390.999965 L333.499956,390.999965 L333.499956,389.500026 L369.499886,389.500026 L369.499886,418.749969 Z M366.499921,421.749934 L364.999895,421.749934 L364.999895,395.499956 C364.999895,394.672731 364.327181,393.99993 363.499868,393.99993 L330.499991,393.99993 L330.499991,392.499991 L366.499921,392.499991 L366.499921,421.749934 L366.499921,421.749934 Z M363.50145,422.506671 L363.50145,424.749899 L327.500026,424.749899 L327.500026,414.585983 L340.250031,403.252773 L353.252017,414.809489 C353.400552,414.942203 353.598481,415.002232 353.797289,414.99775 C353.997504,414.985006 354.183568,414.893512 354.314788,414.74278 L359.000053,409.389284 L363.500835,414.533513 L363.501538,422.494015 C363.501538,422.495509 363.500044,422.497794 363.500044,422.499991 C363.500044,422.502188 363.50145,422.504474 363.50145,422.506671 L363.50145,422.506671 Z M327.500026,395.499956 L363.499956,395.499956 L363.500747,412.254953 L359.564749,407.756456 C359.279017,407.429415 358.721001,407.429415 358.435269,407.756456 L353.683296,413.187207 L340.74793,401.689729 C340.463692,401.436253 340.036193,401.436253 339.751956,401.689729 L327.500026,412.580411 L327.500026,395.499956 Z M369.499886,388 L333.499956,388 C332.672731,388 331.99993,388.672714 331.99993,389.500026 L331.99993,391.000053 L330.499991,391.000053 C329.672766,391.000053 328.999965,391.672766 328.999965,392.500079 L328.999965,394.000105 L327.500026,394.000105 C326.672714,394.000018 326,394.672731 326,395.499956 L326,424.749899 C326,425.577124 326.672714,426.249925 327.500026,426.249925 L363.499956,426.249925 C364.327181,426.249925 364.999982,425.577212 364.999982,424.749899 L364.999982,423.249873 L366.499921,423.249873 C367.327146,423.249873 367.999947,422.577159 367.999947,421.749846 L367.999947,420.24982 L369.499974,420.24982 C370.327199,420.24982 371,419.577106 371,418.749793 L371,389.499851 C370.999912,388.672714 370.327199,388 369.499886,388 L369.499886,388 Z" id="Page-1"></path>
        </g>
    </g>
</svg>