<?xml version="1.0" encoding="UTF-8"?>
<svg width="48px" height="30px" viewBox="0 0 48 30" version="1.1" xmlns="http://www.w3.org/2000/svg" xmlns:xlink="http://www.w3.org/1999/xlink">
    <!-- Generator: Sketch 40.2 (33826) - http://www.bohemiancoding.com/sketch -->
    <title>elegant</title>
    <desc>Created with Sketch.</desc>
    <defs></defs>
    <g id="Page-1" stroke="none" stroke-width="1" fill="none" fill-rule="evenodd">
        <g id="Homepage_Menu" transform="translate(-702.000000, -225.000000)" fill="#E5E5E5">
            <g id="elegant" transform="translate(702.000000, 225.000000)">
                <g id="Group">
                    <path d="M39,12 C39,11.4499687 38.55,10.9999687 37.9999688,10.9999687 L10.0000312,10.9999687 C9.45,10.9999687 9,11.4499687 9,12 C9,12.5500312 9.45,13.0000312 10.0000312,13.0000312 L23.0000625,13.0000312 L23.0000625,29.0000625 C23.0000625,29.5500937 23.4500625,30.0000937 24.0000937,30.0000937 C24.550125,30.0000937 25.000125,29.5500937 25.000125,29.0000625 L25.000125,13.0000312 L38.0001562,13.0000312 C38.55,13.0000312 39,12.5500312 39,12 L39,12 Z" id="Shape"></path>
                    <path d="M12,16.0000313 L1.99996875,16.0000313 L1.99996875,1.00003125 C1.99996875,0.45 1.54996875,0 0.9999375,0 C0.45,2.66453526e-15 0,0.45 0,1.00003125 L0,29.0000625 C0,29.55 0.45,30 1.00003125,30 C1.5500625,30 2.0000625,29.55 2.0000625,28.9999688 L2.0000625,24 L11.0000625,24 L11.0000625,28.9999688 C11.0000625,29.55 11.4500625,30 12.0000938,30 C12.550125,30 13.000125,29.55 13.000125,28.9999688 L13.000125,16.9999688 C13.0000312,16.4500313 12.5500312,16.0000313 12,16.0000313 L12,16.0000313 Z M10.9999688,22.0000312 L1.99996875,22.0000312 L1.99996875,18 L10.9999688,18 L10.9999688,22.0000312 L10.9999688,22.0000312 Z" id="Shape"></path>
                    <path d="M46.9999688,0 C46.4499375,0 45.9999375,0.45 45.9999375,1.00003125 L45.9999375,16.0000313 L36,16.0000313 C35.4499688,16.0000313 34.9999688,16.4500313 34.9999688,17.0000625 L34.9999688,29.0000625 C34.9999688,29.5500938 35.4499688,30.0000937 36,30.0000937 C36.5500313,30.0000937 37.0000313,29.5500937 37.0000313,29.0000625 L37.0000313,24 L46.0000313,24 L46.0000313,28.9999687 C46.0000313,29.55 46.4500313,30 47.0000625,30 C47.55,30 48,29.55 48,28.9999688 L48,1.00003125 C48,0.45 47.55,0 46.9999688,0 L46.9999688,0 Z M46.0000313,22.0000312 L37.0000313,22.0000312 L37.0000313,18 L46.0000313,18 L46.0000313,22.0000312 L46.0000313,22.0000312 Z" id="Shape"></path>
                </g>
            </g>
        </g>
    </g>
</svg>