<?xml version="1.0" encoding="UTF-8"?>
<svg width="45px" height="36px" viewBox="0 0 45 36" version="1.1" xmlns="http://www.w3.org/2000/svg" xmlns:xlink="http://www.w3.org/1999/xlink">
    <!-- Generator: Sketch 40.2 (33826) - http://www.bohemiancoding.com/sketch -->
    <title>map</title>
    <desc>Created with Sketch.</desc>
    <defs></defs>
    <g id="Page-1" stroke="none" stroke-width="1" fill="none" fill-rule="evenodd">
        <g id="Homepage_Menu" transform="translate(-940.000000, -225.000000)" fill="#FFFFFF">
            <g id="map" transform="translate(940.000000, 225.000000)">
                <path d="M6.35385965,3.77666667 C4.92105263,3.77666667 3.75526316,4.94245614 3.75526316,6.37526316 C3.75526316,7.80815789 4.92105263,8.97394737 6.35385965,8.97394737 C7.78666667,8.97394737 8.95245614,7.80815789 8.95245614,6.37526316 C8.95245614,4.94245614 7.78666667,3.77666667 6.35385965,3.77666667 L6.35385965,3.77666667 Z M6.35385965,7.10447368 C5.95175439,7.10447368 5.62464912,6.7772807 5.62464912,6.37517544 C5.62464912,5.97307018 5.95175439,5.64596491 6.35385965,5.64596491 C6.75596491,5.64596491 7.08307018,5.97298246 7.08307018,6.37517544 C7.08307018,6.77736842 6.75587719,7.10447368 6.35385965,7.10447368 L6.35385965,7.10447368 Z" id="Shape"></path>
                <path d="M43.1414912,11.7208772 L43.1414912,5.12114035 C43.1414912,3.84350877 42.1017544,2.8027193 40.8228947,2.80122807 L11.5980702,2.78657895 C11.3697368,2.45447368 11.1086842,2.14105263 10.8150877,1.85149123 C9.59508772,0.648245614 7.98008772,-0.00298245614 6.26394737,0.0223684211 C2.8304386,0.0699122807 0.0205263158,2.9027193 8.77192982e-05,6.33692982 C-0.00587719298,7.35464912 0.234649123,8.36824561 0.695701754,9.26850877 C0.704824561,9.28640351 2.21578947,11.8199123 2.21578947,11.8199123 L2.21578947,33.0785088 C2.21578947,34.357193 3.25614035,35.3975439 4.53438596,35.3975439 L40.820614,35.417193 C42.1003509,35.417193 43.1414912,34.3764035 43.1414912,33.097193 L43.1414912,20.8178947 C43.1414912,20.8178947 44.2075439,19.0300877 44.2166667,19.0121053 C44.6717544,18.1235965 44.9123684,17.1231579 44.9123684,16.1189474 C44.9122807,14.4637719 44.2837719,12.9095614 43.1414912,11.7208772 L43.1414912,11.7208772 Z M36.7504386,4.66859649 L32.2374561,9.18157895 L27.7199123,4.66403509 L36.7504386,4.66859649 L36.7504386,4.66859649 Z M31.0476316,10.3713158 L23.1822807,18.2366667 L20.3064912,15.3608772 C20.3063158,15.3607018 20.3062281,15.360614 20.3060526,15.3604386 C20.3058772,15.3602632 20.3057895,15.3601754 20.305614,15.36 L18.1484211,13.202807 L26.0137719,5.33754386 L31.0476316,10.3713158 L31.0476316,10.3713158 Z M15.3848246,21.4716667 L19.7113158,17.1451754 L25.2698246,22.7036842 L20.9433333,27.0301754 L15.3848246,21.4716667 L15.3848246,21.4716667 Z M16.439386,24.9055263 L11.5861404,29.7586842 L7.69736842,25.8698246 L12.5505263,21.0166667 L16.439386,24.9055263 L16.439386,24.9055263 Z M12.0115789,9.26850877 C12.4666667,8.38 12.7072807,7.3795614 12.7072807,6.37535088 C12.7072807,5.7854386 12.6258772,5.20885965 12.4716667,4.65640351 L24.3096491,4.66236842 L16.9588596,12.0131579 L14.3266667,9.38096491 C13.9980702,9.05254386 13.4655263,9.05254386 13.1369298,9.38096491 C12.8084211,9.70947368 12.8084211,10.242193 13.1369298,10.5707895 L18.5216667,15.9555263 L14.1951754,20.2820175 L10.6911404,16.7779825 C10.3626316,16.4495614 9.83,16.4495614 9.50140351,16.7779825 C9.17289474,17.1065789 9.17289474,17.6392105 9.50140351,17.967807 L11.3607018,19.8271053 L4.08526316,27.1024561 L4.08526316,14.9530702 L4.74912281,16.0657018 C5.0895614,16.6362281 5.68938596,16.9768421 6.35368421,16.9768421 C7.01798246,16.9768421 7.61780702,16.6362281 7.95824561,16.0657895 C7.95815789,16.0657018 12.0024561,9.28640351 12.0115789,9.26850877 L12.0115789,9.26850877 Z M2.34649123,8.39052632 C2.02570175,7.75447368 1.86517544,7.06754386 1.86947368,6.34807018 C1.88385965,3.92438596 3.86675439,1.92517544 6.28964912,1.89157895 C7.50166667,1.87666667 8.64122807,2.33333333 9.5022807,3.18254386 C9.79877193,3.475 10.0482456,3.80175439 10.2494737,4.15315789 C10.2581579,4.16991228 10.267807,4.18596491 10.2775439,4.20201754 C10.6428947,4.85921053 10.8378947,5.60166667 10.8378947,6.3754386 C10.8378947,7.08517544 10.6773684,7.76298246 10.3607895,8.39070175 L6.35464912,15.1078947 L2.34649123,8.39052632 L2.34649123,8.39052632 Z M4.53491228,33.5281579 C4.28701754,33.5281579 4.08535088,33.3265789 4.08535088,33.0785965 L4.08535088,29.4819298 L6.50763158,27.0596491 L12.9807018,33.532807 L4.53491228,33.5281579 L4.53491228,33.5281579 Z M15.3614035,33.5339474 L12.7757895,30.9483333 L17.6290351,26.0951754 L25.0729825,33.5392105 L15.3614035,33.5339474 L15.3614035,33.5339474 Z M22.1330702,28.2198246 L26.4595614,23.8933333 L29.6013158,27.0350877 L25.2748246,31.3615789 L22.1330702,28.2198246 L22.1330702,28.2198246 Z M27.4536842,33.5405263 L26.4644737,32.5513158 L30.7909649,28.2248246 L36.1114035,33.5452632 L27.4536842,33.5405263 L27.4536842,33.5405263 Z M40.8211404,33.5477193 L38.492193,33.5464912 L31.9807895,27.0350877 L33.9405263,25.0753509 C34.2691228,24.7467544 34.2691228,24.2141228 33.9405263,23.8855263 C33.6120175,23.5571053 33.079386,23.5571053 32.7507895,23.8855263 L30.7909649,25.8453509 L27.0548246,22.1092105 C27.0546491,22.1090351 27.0545614,22.1089474 27.054386,22.1087719 C27.0542105,22.1085965 27.0541228,22.1085088 27.0539474,22.1083333 L24.3721053,19.4264035 L27.5610526,16.2374561 L29.2135088,17.8899123 C29.3960526,18.0723684 29.6352632,18.1636842 29.8744737,18.1636842 C30.1136842,18.1636842 30.3529825,18.0723684 30.5354386,17.8899123 C30.9004386,17.5249123 30.9004386,16.9330702 30.5354386,16.5678947 L28.8829825,14.9154386 L39.1285965,4.66982456 L40.8213158,4.67070175 C41.0697368,4.67096491 41.2719298,4.87307018 41.2719298,5.12114035 L41.2719298,10.3703509 C40.4081579,9.96131579 39.455614,9.75122807 38.4687719,9.76614035 C35.0352632,9.81377193 32.2254386,12.6464035 32.2050877,16.0807018 C32.1991228,17.0984211 32.4396491,18.1120175 32.9007018,19.0122807 C32.9098246,19.0300877 36.9541228,25.8094737 36.9541228,25.8094737 C37.2945614,26.38 37.894386,26.720614 38.5587719,26.720614 C39.2230702,26.720614 39.8228947,26.3800877 40.1632456,25.8095614 L41.2720175,23.9512281 L41.2720175,33.0972807 L41.2722807,33.0972807 C41.2720175,33.345614 41.0694737,33.5477193 40.8211404,33.5477193 L40.8211404,33.5477193 Z M42.5657895,18.1342105 L41.3860526,20.1122807 C41.3857018,20.1130702 41.3850877,20.1137719 41.3847368,20.1145614 L38.5595614,24.8514912 L34.5515789,18.1341228 C34.2307895,17.4980702 34.0702632,16.8111404 34.0745614,16.0916667 C34.0888596,13.6679825 36.0718421,11.6688596 38.4948246,11.6352632 C39.7044737,11.6187719 40.8463158,12.0769298 41.7072807,12.9261404 C42.5685088,13.7755263 43.0428947,14.9094737 43.0428947,16.1190351 C43.0428947,16.8287719 42.8823684,17.5065789 42.5657895,18.1342105 L42.5657895,18.1342105 Z" id="Shape"></path>
                <path d="M38.5588596,13.5204386 C37.1259649,13.5204386 35.9602632,14.6862281 35.9602632,16.1191228 C35.9602632,17.5519298 37.1260526,18.7177193 38.5588596,18.7177193 C39.9917544,18.7177193 41.1574561,17.5519298 41.1574561,16.1191228 C41.1574561,14.6860526 39.9917544,13.5204386 38.5588596,13.5204386 L38.5588596,13.5204386 Z M38.5588596,16.8481579 C38.1567544,16.8481579 37.8296491,16.5211404 37.8296491,16.1189474 C37.8296491,15.7167544 38.1566667,15.3896491 38.5588596,15.3896491 C38.9610526,15.3896491 39.2880702,15.7168421 39.2880702,16.1189474 C39.2880702,16.5210526 38.9609649,16.8481579 38.5588596,16.8481579 L38.5588596,16.8481579 Z" id="Shape"></path>
            </g>
        </g>
    </g>
</svg>